<?xml version="1.0" standalone="no"?>
<!DOCTYPE svg PUBLIC "-//W3C//DTD SVG 20010904//EN"
 "http://www.w3.org/TR/2001/REC-SVG-20010904/DTD/svg10.dtd">
<svg version="1.0" xmlns="http://www.w3.org/2000/svg"
 width="141.000000pt" height="141.000000pt" viewBox="0 0 141.000000 141.000000"
 preserveAspectRatio="xMidYMid meet">
<metadata>
Created by potrace 1.14, written by Peter Selinger 2001-2017
</metadata>
<g transform="translate(0.000000,141.000000) scale(0.100000,-0.100000)"
fill="#000000" stroke="none">
<path d="M665 1362 c-23 -15 -51 -61 -117 -195 -49 -97 -91 -178 -95 -180 -5
-3 -39 -8 -78 -12 -38 -4 -73 -8 -76 -11 -4 -2 -28 -6 -54 -8 -26 -3 -55 -7
-64 -10 -9 -3 -38 -7 -65 -11 -59 -7 -82 -18 -97 -47 -29 -55 -18 -74 137
-229 l147 -147 -7 -44 c-4 -25 -9 -56 -11 -69 -44 -252 -47 -274 -36 -310 23
-78 73 -70 296 46 l161 84 139 -72 c196 -100 242 -117 273 -106 36 14 51 38
52 81 0 31 -37 274 -56 359 -4 24 9 41 108 141 200 202 210 218 168 271 -22
28 -92 48 -220 63 -25 2 -56 7 -70 9 -14 3 -45 8 -70 12 -25 3 -52 9 -61 14
-9 4 -55 84 -103 177 -47 93 -92 176 -99 186 -19 26 -67 29 -102 8z m77 -347
c90 -177 94 -181 212 -205 54 -11 111 -20 127 -20 15 0 30 -4 33 -8 3 -4 -38
-51 -90 -104 -107 -110 -105 -101 -79 -264 9 -53 15 -103 13 -110 -2 -9 -37 3
-118 43 -63 30 -124 56 -135 56 -11 0 -73 -26 -137 -57 -64 -31 -118 -56 -121
-56 -2 0 2 33 9 73 7 39 16 104 20 144 l7 71 -98 101 c-54 56 -96 101 -94 102
2 0 11 2 19 4 8 1 61 10 117 19 57 9 114 21 126 27 22 10 42 43 129 213 22 42
25 41 60 -29z"/>
</g>
</svg>
